<svg xmlns="http://www.w3.org/2000/svg" height="300" width="300" fill="#00a077" viewBox="0 0 64 64"  xmlns:v="https://vecta.io/nano"><path d="M44.414 43L47 42.999v2L41.649 45l-3.364-2.69A5.99 5.99 0 0 0 34.554 41c-.857 0-1.554.697-1.554 1.554a1.56 1.56 0 0 0 .755 1.333l6.597 3.958a8.18 8.18 0 0 0 6.734.739L51 47.28V40.5l-2.335-1.751L44.414 43zM24.013 56.16a1 1 0 0 0 .827.827l3.381-1.353-2.855-2.855-1.353 3.381zm12.624-8.211l-3.912-2.347c-.189-.113-.359-.248-.521-.392L26.414 51 30 54.586l6.637-6.637zM53 47.181l8 1.599v-9.56l-8 1.599zm-23.131-2.464l1.252-1.252a3.51 3.51 0 0 1-.121-.911A3.56 3.56 0 0 1 34.554 39c.324 0 .646.027.966.066L39.586 35h-1.101c-1.336 0-2.591.52-3.535 1.464l-5.415 5.414A1.84 1.84 0 0 0 29 43.171c0 .644.343 1.219.869 1.546zM60 7H32a1 1 0 0 0-1 1v20a1 1 0 0 0 1 1h13.586l2-2H33v-2h26v2h-3.776c.394.583.635 1.268.722 2H60a1 1 0 0 0 1-1V8a1 1 0 0 0-1-1zm-13 6h8v2h-8v-2zm-13-3h10v8H34v-8zm25 13H33v-2h26v2zm0-4H47v-2h12v2zm0-4h-2v-2h2v2zm0-4H47V9h12v2zM39.322 49.56l-.917-.55-7.843 7.843L25.192 59H25c-1.654 0-3-1.346-3-3v-.192l2.147-5.369L27.586 47H3v14h44V50.689a10.09 10.09 0 0 1-2.478.311 10.11 10.11 0 0 1-5.2-1.44zM20 59H5v-2h15v2zm0-4H5v-2h15v2zm0-4H5v-2h15v2zm24 7h-8v-4h8v4zm9.258-26.672A2.52 2.52 0 0 0 54 29.535 2.54 2.54 0 0 0 51.465 27a2.52 2.52 0 0 0-1.793.742L46.414 31 50 34.586l3.258-3.258zm-15.515 8.343a8.01 8.01 0 0 1 1.792 1.076l2.391 1.913 6.66-6.66L45 32.414l-7.257 7.257zM12.113 33.2A4.56 4.56 0 0 1 16 31a4.56 4.56 0 0 1 3.887 2.2L23 38.389V25H3v16h4.434l4.679-7.8zM6 30a2 2 0 1 1 4 0 2 2 0 1 1-4 0zm10 3c-.884 0-1.717.471-2.172 1.229L9.766 41h12.468l-4.062-6.771C17.717 33.471 16.884 33 16 33zM6 17h16a1 1 0 0 0 1-1V4a1 1 0 0 0-1-1H6a1 1 0 0 0-1 1v12a1 1 0 0 0 1 1zm4-9.382A1.62 1.62 0 0 1 11.618 6c.251 0 .499.058.724.171l4.764 2.382c.548.274.894.834.894 1.447s-.346 1.173-.894 1.447l-4.764 2.382c-.225.113-.473.171-.724.171A1.62 1.62 0 0 1 10 12.382V7.618z"/></svg>