<svg xmlns="http://www.w3.org/2000/svg" height="300" width="300" fill="#00a077" viewBox="0 0 100 100"  xmlns:v="https://vecta.io/nano"><path d="M50 0C22.386 0 0 22.386 0 50s22.386 50 50 50 50-22.386 50-50S77.614 0 50 0zm4.241 64.935L44.075 75.101c-2.538 2.541-5.985 3.963-9.576 3.95-7.486-.005-13.551-6.077-13.546-13.563.002-3.587 1.427-7.028 3.961-9.567L37.23 43.596a13.5 13.5 0 0 1 9.585-3.97 13.56 13.56 0 0 1 7.31 2.14c.824.524 1.587 1.138 2.275 1.83a3.87 3.87 0 0 1 1.123 2.982c-.067.928-.466 1.801-1.123 2.459a3.97 3.97 0 0 1-5.441 0 5.81 5.81 0 0 0-8.21 0L30.384 61.391c-2.27 2.27-2.27 5.95 0 8.22s5.95 2.27 8.22 0l7.31-7.32a.97.97 0 0 1 1.055-.213c1.967.8 4.072 1.208 6.196 1.201h.387a.97.97 0 0 1 .974.963.96.96 0 0 1-.285.693zm20.835-20.846L62.751 56.415a13.55 13.55 0 0 1-6.284 3.563h-.107l-.562.116-.31.058-.668.097h-.329c-.252 0-.474.048-.687.058l-.581.068h-.736c-.483-.019-.965-.065-1.443-.136a15.67 15.67 0 0 1-1.171-.242l-.571-.155c-.203-.058-.416-.126-.62-.203s-.416-.145-.62-.232-.407-.165-.61-.261a13.46 13.46 0 0 1-3.873-2.711 3.87 3.87 0 0 1-1.123-2.982c.062-.935.461-1.815 1.123-2.479a3.97 3.97 0 0 1 5.441 0 5.81 5.81 0 0 0 8.21 0l3.176-3.156.077-.087 9.082-9.072c2.27-2.27 2.27-5.95 0-8.22s-5.95-2.27-8.22 0l-7.291 7.281a.97.97 0 0 1-1.055.213c-1.964-.803-4.065-1.214-6.187-1.21h-.358c-.396.008-.756-.226-.91-.591a.97.97 0 0 1 .203-1.065L55.903 24.92c5.294-5.294 13.877-5.294 19.17 0s5.297 13.876.003 19.169z"/></svg>