<svg xmlns="http://www.w3.org/2000/svg" height="300" width="300" fill="#00a077" viewBox="0 0 48 48"  xmlns:v="https://vecta.io/nano"><path fill="#00a077" d="M43 2H5a3 3 0 0 0-3 3v38a3 3 0 0 0 3 3h38a3 3 0 0 0 3-3V5a3 3 0 0 0-3-3zM4 5a1 1 0 0 1 1-1h38a1 1 0 0 1 1 1v5H4zm40 38a1 1 0 0 1-1 1H5a1 1 0 0 1-1-1V12h40zM10 7a2 2 0 1 1-2-2 2 2 0 0 1 2 2zm6 0a2 2 0 1 1-2-2 2 2 0 0 1 2 2zm6 0a2 2 0 1 1-2-2 2 2 0 0 1 2 2zM6 27h8v7a1 1 0 0 0 1 1h8v7a1 1 0 0 0 1 1h17a1 1 0 0 0 1-1V30a1 1 0 0 0-1-1h-8v-7a1 1 0 0 0-1-1h-8v-7a1 1 0 0 0-1-1H6a1 1 0 0 0-1 1v12a1 1 0 0 0 1 1zm19 14v-6h15v6zm15-8H25v-2h15zm-16-4a1 1 0 0 0-1 1v3h-7v-6h15v2zm7-4H16v-2h15zm-16-4a1 1 0 0 0-1 1v3H7v-6h15v2zm7-6v2H7v-2z"/></svg>