<svg xmlns="http://www.w3.org/2000/svg" height="300" width="300" fill="#00a077" viewBox="0 0 64 64"  xmlns:v="https://vecta.io/nano"><path d="M60 4h-3V2a1 1 0 0 0-1-1h-8a1 1 0 0 0-1 1v2H28a3 3 0 0 0-3 3v17h-5a3 3 0 0 0-3 3v4H4a3 3 0 0 0-3 3v26a3 3 0 0 0 3 3h32a3 3 0 0 0 3-3v-4h13a3 3 0 0 0 3-3V36h5a3 3 0 0 0 3-3V7a3 3 0 0 0-3-3zM49 3h6v4h-6zm-1 6h8a1 1 0 0 0 1-1V6h3a1 1 0 0 1 1 1v3H43V6h4v2a1 1 0 0 0 1 1zm-13 1V6h6v4zm-7-4h5v4h-6V7a1 1 0 0 1 1-1zm-8 20h5v4h-6v-3a1 1 0 0 1 1-1zm-3 11h-6v-4h6zM4 33h5v4H3v-3a1 1 0 0 1 1-1zm33 27a1 1 0 0 1-1 1H4a1 1 0 0 1-1-1V39h14v14a3 3 0 0 0 3 3h17zm16-7a1 1 0 0 1-1 1H20a1 1 0 0 1-1-1V32h6v1a3 3 0 0 0 3 3h25zm7-19H28a1 1 0 0 1-1-1V12h34v21a1 1 0 0 1-1 1zM38 18h-8a1 1 0 0 0-1 1v6a1 1 0 0 0 1 1h8a1 1 0 0 0 1-1v-6a1 1 0 0 0-1-1zm-1 6h-6v-4h6zm6-5h16v2H43zm0 4h16v2H43zM14 45H6a1 1 0 0 0-1 1v6a1 1 0 0 0 1 1h8a1 1 0 0 0 1-1v-6a1 1 0 0 0-1-1zm-1 6H7v-4h6zm8-12v6a1 1 0 0 0 1 1h8a1 1 0 0 0 1-1v-6a1 1 0 0 0-1-1h-8a1 1 0 0 0-1 1zm2 1h6v4h-6zm12-1.001h16v1.999H35zm0 4h16v1.999H35z"/></svg>