<?xml version="1.0" encoding="utf-8"?>
<!-- Generator: Adobe Illustrator 24.3.0, SVG Export Plug-In . SVG Version: 6.00 Build 0)  -->
<svg version="1.1" id="Layer_1" xmlns="http://www.w3.org/2000/svg" xmlns:xlink="http://www.w3.org/1999/xlink" x="0px" y="0px"
	 viewBox="0 0 192.6 41.8" enable-background="new 0 0 192.6 41.8" xml:space="preserve">
<g>
	<g>
		<path fill="#FFFFFF" d="M76,34.4L70.6,8.6c0-0.1,0-0.2,0-0.3s0-0.2,0-0.2c0-0.6,0.7-1,2.1-1h0.9c1.4,0,2.1,0.3,2.2,1l2.5,16.3
			l0.6,5.5h0.2c0.2-1.4,0.4-3.2,0.8-5.5l2.9-16.5c0.1-0.3,0.2-0.5,0.5-0.6S84,7,84.6,7h1.6c0.6,0,1,0.1,1.3,0.2
			c0.3,0.1,0.4,0.3,0.5,0.6l2.8,16.6c0.2,1,0.4,2.9,0.8,5.6h0.2c0.1-1.3,0.3-3.1,0.7-5.6l2.5-16.3c0.1-0.7,0.8-1,2.2-1h0.8
			c1.4,0,2.1,0.3,2.1,1l-0.1,0.6l-5.4,25.9c-0.1,0.5-0.7,0.8-1.7,0.8h-2.3c-1,0-1.6-0.3-1.7-0.8l-2.8-14c-0.3-1.8-0.5-3.8-0.6-6.1
			h-0.2c-0.1,2.2-0.4,4.2-0.7,6.1l-2.8,14c-0.1,0.5-0.7,0.8-1.7,0.8h-2.3C76.7,35.2,76.1,34.9,76,34.4z"/>
		<path fill="#FFFFFF" d="M102.7,34V8.6c0-0.5,0.1-0.9,0.3-1.1c0.2-0.2,0.6-0.4,1.1-0.4h6.8c2,0,3.8,0.6,5.4,1.8
			c1.6,1.2,2.4,3.4,2.4,6.7c0,2.3-0.5,4.1-1.4,5.4c-0.9,1.3-1.9,2.1-3,2.6s-2.1,0.7-3,0.7H108V34c0,0.8-0.7,1.2-2.1,1.2h-1.1
			C103.4,35.2,102.7,34.8,102.7,34z M110.8,19.7c0.7,0,1.4-0.3,1.9-0.9c0.5-0.6,0.8-1.7,0.8-3.2c0-1.5-0.3-2.5-0.8-3.1
			c-0.5-0.6-1.2-0.9-2-0.9H108v8.1H110.8z"/>
		<path fill="#FFFFFF" d="M131.4,34V11.6h-4.9c-0.4,0-0.6-0.1-0.8-0.4c-0.2-0.3-0.2-0.7-0.2-1.3v-1c0-0.6,0.1-1,0.2-1.3
			c0.2-0.3,0.4-0.4,0.8-0.4h15.1c0.4,0,0.6,0.1,0.8,0.4c0.2,0.3,0.3,0.7,0.3,1.3v1c0,0.6-0.1,1.1-0.3,1.3c-0.2,0.3-0.4,0.4-0.8,0.4
			h-4.9V34c0,0.8-0.7,1.2-2,1.2h-1.3C132.1,35.2,131.4,34.8,131.4,34z"/>
		<path fill="#FFFFFF" d="M144,33.7c-1-1.1-1.5-2.6-1.5-4.6c0-2.3,0.8-4.1,2.4-5.4s4.1-2,7.4-2v-1.1c0-1.8-0.9-2.7-2.8-2.7
			c-0.7,0-1.3,0.1-1.9,0.3c-0.5,0.2-1.1,0.4-1.7,0.7c-0.3,0.2-0.6,0.3-0.8,0.3c-0.3,0-0.7-0.4-1.2-1.1c-0.4-0.7-0.7-1.3-0.7-1.7
			c0-0.4,0.3-0.8,0.9-1.2c0.6-0.4,1.4-0.7,2.5-0.9c1-0.2,2.1-0.4,3.1-0.4c2.6,0,4.5,0.6,5.7,1.8c1.2,1.2,1.8,2.8,1.8,4.8v8
			c0,1.8,0.1,3.1,0.2,4c0.2,0.8,0.2,1.4,0.2,1.5c0,0.4-0.4,0.7-1.3,0.9c-0.9,0.2-1.7,0.3-2.4,0.3c-0.4,0-0.7-0.2-0.9-0.5
			c-0.2-0.3-0.4-0.9-0.6-1.6c-0.5,0.7-1.1,1.2-1.9,1.7c-0.8,0.5-1.7,0.7-2.7,0.7C146.3,35.4,144.9,34.8,144,33.7z M151.1,31.1
			c0.5-0.3,0.9-0.7,1.2-1.2V25c-3.4,0-5.1,1.3-5.1,3.8c0,0.9,0.2,1.5,0.6,2c0.4,0.5,1,0.7,1.7,0.7C150.1,31.5,150.6,31.4,151.1,31.1
			z"/>
		<path fill="#FFFFFF" d="M169,34.6c-0.8-0.5-1.5-1.2-1.9-2.1c-0.1,0.7-0.3,1.2-0.4,1.6c-0.1,0.4-0.3,0.7-0.6,0.8
			c-0.3,0.1-0.7,0.2-1.2,0.2h-0.4c-1.3,0-2-0.4-2-1.2V6.1c0-0.7,0.7-1.1,2.1-1.1h0.9c1.4,0,2.1,0.4,2.1,1.1v9.3c1-1,2.2-1.5,3.6-1.5
			c2.1,0,3.7,0.9,4.9,2.8c1.2,1.9,1.8,4.5,1.8,7.9c0,2.2-0.3,4.1-0.8,5.8c-0.5,1.6-1.2,2.9-2.2,3.7c-0.9,0.9-2,1.3-3.2,1.3
			C170.7,35.4,169.8,35.1,169,34.6z M172,29.6c0.4-1.1,0.6-2.7,0.6-5c0-2.3-0.2-4-0.7-5.1c-0.5-1-1.2-1.5-2.1-1.5
			c-0.9,0-1.6,0.3-2.3,1v10.4c0.8,1.2,1.6,1.8,2.6,1.8C170.9,31.2,171.6,30.7,172,29.6z"/>
		<path fill="#FFFFFF" d="M182,34.7c-1.2-0.5-1.8-1.1-1.8-1.8c0-0.5,0.2-1.1,0.7-1.8c0.5-0.7,0.9-1.1,1.2-1.1c0.1,0,0.3,0.1,0.7,0.4
			c0.4,0.3,0.8,0.5,1.2,0.6c0.4,0.2,0.9,0.3,1.4,0.3c0.7,0,1.3-0.2,1.7-0.5c0.4-0.3,0.6-0.8,0.6-1.5c0-0.7-0.2-1.3-0.7-1.7
			s-1.3-0.9-2.4-1.6c-1.3-0.7-2.2-1.5-2.9-2.3c-0.7-0.9-1-2.1-1-3.6c0-1.9,0.6-3.4,1.8-4.5c1.2-1.1,2.7-1.7,4.6-1.7
			c1.2,0,2.3,0.2,3.3,0.6c1.1,0.4,1.6,0.9,1.6,1.6c0,0.5-0.2,1-0.5,1.8c-0.3,0.7-0.7,1.1-1,1.1c-0.1,0-0.4-0.1-0.9-0.4
			c-0.5-0.3-1.1-0.4-1.8-0.4c-0.7,0-1.2,0.1-1.6,0.4c-0.4,0.3-0.6,0.7-0.6,1.3c0,0.6,0.2,1.1,0.6,1.4c0.4,0.4,1,0.8,1.9,1.2l0.8,0.4
			c1.2,0.7,2.2,1.5,2.8,2.4c0.7,0.9,1,2.1,1,3.6c0,1.9-0.6,3.5-1.8,4.7c-1.2,1.2-2.8,1.8-4.9,1.8C184.5,35.4,183.2,35.2,182,34.7z"
			/>
	</g>
	<g>
		<g>
			<path fill="#FFFFFF" d="M53.3,5.4v30.9H5.4V5.4L53.3,5.4 M58,0.7H0.7v40.5H58V0.7L58,0.7z"/>
			<path fill="#FFFFFF" d="M58.7,41.8H0V0h58.7V41.8z M1.3,40.5h56V1.3h-56V40.5z M53.9,37.1H4.8V4.8h49.1V37.1z M6.1,35.7h46.5V6.1
				H6.1V35.7z"/>
		</g>
		<g>
			<rect x="19.8" y="12.6" fill="#FFFFFF" width="36.8" height="4.8"/>
			<path fill="#FFFFFF" d="M57.3,18.1H19.1V12h38.2V18.1z M20.5,16.7H56v-3.4H20.5V16.7z"/>
		</g>
		<g>
			<rect x="19.8" y="4.7" fill="#FFFFFF" width="4.8" height="10.8"/>
			<path fill="#FFFFFF" d="M25.2,16.1h-6.1V4h6.1V16.1z M20.5,14.7h3.4V5.3h-3.4V14.7z"/>
		</g>
		<g>
			<rect x="35.8" y="5" fill="#FFFFFF" width="4.8" height="8.4"/>
			<path fill="#FFFFFF" d="M41.3,14.1h-6.1V4.4h6.1V14.1z M36.5,12.7h3.4v-7h-3.4V12.7z"/>
		</g>
	</g>
</g>
</svg>
